<?xml version="1.0" standalone="no"?>
<!DOCTYPE svg PUBLIC "-//W3C//DTD SVG 20010904//EN"
 "http://www.w3.org/TR/2001/REC-SVG-20010904/DTD/svg10.dtd">
<svg version="1.0" xmlns="http://www.w3.org/2000/svg"
 width="150.000000pt" height="50.000000pt" viewBox="0 0 150.000000 50.000000"
 preserveAspectRatio="xMidYMid meet">

<g transform="translate(0.000000,50.000000) scale(0.100000,-0.100000)"
fill="#000000" stroke="none">
<path d="M817 410 c-15 -40 -42 -50 -33 -13 l6 28 -16 -30 c-9 -16 -20 -32
-24 -35 -10 -7 -18 -80 -8 -80 4 0 10 11 14 25 3 13 13 30 21 37 13 10 14 6 8
-36 -10 -63 14 -60 30 4 7 27 18 46 30 51 11 4 14 8 6 8 -10 1 -12 10 -7 36 9
44 -11 48 -27 5z"/>
<path d="M285 418 c-94 -14 -99 -15 -122 -23 -13 -4 -23 -12 -23 -17 0 -5 5
-6 12 -2 7 5 8 3 4 -5 -5 -7 -10 -10 -13 -7 -3 3 -19 -2 -35 -12 -37 -21 -60
-62 -47 -83 5 -8 9 -23 9 -34 1 -28 64 -112 102 -135 65 -39 245 -35 334 7 45
22 94 112 94 172 0 102 -143 166 -315 139z m-40 -49 c4 -11 5 -34 3 -51 -2
-19 2 -33 10 -35 7 -3 10 1 6 11 -3 9 -1 16 6 16 6 0 8 5 3 13 -12 20 -12 35
2 47 15 13 106 17 123 6 15 -9 16 -26 1 -26 -5 0 -7 5 -4 10 3 6 1 10 -4 10
-6 0 -11 -8 -11 -17 0 -9 -8 -25 -17 -36 -10 -11 -12 -17 -6 -13 7 4 21 2 32
-4 13 -7 22 -7 26 0 3 5 17 10 30 10 23 0 40 24 29 41 -9 16 8 10 43 -13 18
-13 40 -37 50 -55 15 -29 15 -33 0 -56 -22 -35 -87 -73 -96 -58 -6 9 -15 8
-37 -4 -16 -8 -22 -15 -14 -16 21 -2 -39 -16 -73 -18 -17 -1 -26 3 -22 9 3 6
23 10 43 11 l37 1 -35 10 c-30 8 -37 7 -51 -11 -19 -23 -39 -28 -39 -8 0 9 -3
8 -9 -2 -7 -11 -14 -10 -37 5 -15 11 -25 13 -21 7 22 -36 -64 2 -91 40 -21 30
-21 32 -3 35 40 6 91 103 79 150 -4 15 -1 18 18 14 13 -2 26 -13 29 -23z m-90
-33 c18 -13 18 -14 0 -32 -18 -19 -18 -18 -13 4 4 15 2 25 -8 29 -17 6 -47
-16 -41 -31 3 -6 -2 -17 -9 -24 -24 -22 -17 19 8 45 25 27 37 28 63 9z m0 -74
c-3 -3 -11 0 -18 7 -9 10 -8 11 6 5 10 -3 15 -9 12 -12z m-25 -14 c0 -4 -6 -8
-14 -8 -8 0 -17 4 -20 8 -2 4 4 8 15 8 10 0 19 -4 19 -8z"/>
<path d="M217 363 c-11 -10 -8 -43 3 -43 15 0 24 30 13 41 -5 5 -12 6 -16 2z"/>
<path d="M190 285 c0 -14 5 -25 11 -25 5 0 8 4 5 9 -3 5 1 11 9 15 22 8 18 26
-5 26 -15 0 -20 -7 -20 -25z"/>
<path d="M337 289 c7 -7 15 -10 18 -7 3 3 -2 9 -12 12 -14 6 -15 5 -6 -5z"/>
<path d="M517 267 c4 -6 0 -8 -10 -4 -10 4 -18 0 -22 -12 -3 -10 -14 -26 -24
-35 -20 -18 -65 -31 -56 -15 4 5 10 7 15 4 19 -11 18 13 0 30 -12 10 -20 13
-20 7 0 -7 6 -12 13 -13 6 0 -3 -6 -22 -13 -19 -7 -36 -17 -38 -23 -5 -14 78
-13 96 1 11 8 15 8 18 -1 7 -19 34 -15 63 7 l25 19 -24 -6 c-17 -4 -22 -3 -17
5 4 7 14 12 23 12 9 0 14 3 10 6 -9 10 -45 -6 -51 -22 -4 -10 -2 -13 6 -8 7 4
8 3 4 -4 -8 -14 -38 -4 -33 12 2 6 18 18 36 28 43 22 45 25 21 31 -13 3 -18 1
-13 -6z"/>
<path d="M220 260 c0 -5 5 -10 10 -10 6 0 10 5 10 10 0 6 -4 10 -10 10 -5 0
-10 -4 -10 -10z"/>
<path d="M325 240 c-12 -4 -20 -16 -20 -31 -1 -13 -6 -23 -12 -22 -6 1 -14 -4
-17 -12 -7 -20 1 -19 35 6 16 11 29 26 29 34 0 7 5 15 12 17 7 3 8 7 3 10 -6
3 -19 2 -30 -2z"/>
<path d="M940 347 c-10 -20 -13 -48 -10 -76 l5 -45 13 38 c10 27 18 36 30 31
18 -7 32 11 31 40 0 16 -3 14 -10 -7 -15 -40 -39 -26 -32 18 7 43 -7 44 -27 1z"/>
<path d="M1035 328 c-17 -59 -19 -98 -5 -98 6 0 10 7 10 16 0 8 5 25 12 37 14
26 18 86 7 93 -4 2 -15 -19 -24 -48z"/>
<path d="M1132 351 c-11 -31 -1 -51 26 -51 10 0 9 -7 -5 -32 -10 -18 -22 -36
-28 -40 -6 -5 -4 -8 5 -7 8 0 35 23 60 52 24 29 35 44 24 35 -31 -27 -36 -22
-19 19 l16 38 -29 -28 c-36 -35 -46 -34 -28 2 14 27 12 41 -5 41 -4 0 -12 -13
-17 -29z"/>
<path d="M867 353 c-4 -3 -7 -15 -7 -25 0 -13 7 -18 25 -18 16 0 25 6 25 16 0
14 -2 15 -17 3 -15 -11 -14 -10 1 9 19 22 19 22 -1 22 -11 0 -23 -3 -26 -7z"/>
<path d="M1082 315 c-7 -15 -8 -25 -2 -25 13 0 32 38 21 44 -4 3 -13 -6 -19
-19z"/>
<path d="M802 148 c-9 -9 -8 -16 5 -30 15 -17 15 -18 -2 -18 -13 0 -16 -3 -9
-10 12 -12 44 -3 44 12 0 6 -8 17 -17 24 -17 13 -17 13 0 14 10 0 15 5 12 10
-8 13 -18 13 -33 -2z"/>
<path d="M1254 149 c-3 -5 0 -9 5 -9 6 0 12 -15 12 -32 l2 -33 4 30 c3 16 9
33 15 36 5 3 0 9 -11 12 -12 3 -24 1 -27 -4z"/>
<path d="M670 120 c0 -16 5 -30 10 -30 6 0 10 5 10 12 0 6 6 4 13 -6 12 -16
13 -14 14 18 1 32 -2 36 -23 36 -20 0 -24 -5 -24 -30z"/>
<path d="M740 122 c0 -34 7 -43 28 -35 13 6 13 8 -4 14 -17 7 -17 8 -1 8 9 1
17 6 17 11 0 6 -8 10 -17 11 -15 0 -15 2 2 9 19 8 19 9 -2 9 -19 1 -23 -4 -23
-27z"/>
<path d="M856 144 c6 -3 9 -16 6 -29 -2 -15 0 -25 7 -25 6 0 11 11 11 24 0 13
6 27 13 29 6 3 -1 5 -18 5 -16 0 -25 -2 -19 -4z"/>
<path d="M913 120 c-11 -29 -10 -30 8 -25 11 4 27 1 36 -7 15 -11 16 -11 9 7
-5 11 -11 28 -13 38 -8 27 -27 20 -40 -13z"/>
<path d="M981 123 c-1 -31 12 -44 37 -35 6 2 12 18 11 36 -1 28 -2 29 -8 7 -9
-35 -29 -37 -34 -4 -4 27 -4 27 -6 -4z"/>
<path d="M1047 138 c-2 -7 -2 -21 1 -31 4 -15 7 -16 13 -5 7 10 9 10 9 1 0
-28 17 -11 18 17 0 23 -4 30 -18 30 -10 0 -20 -6 -23 -12z m33 -2 c0 -3 -4 -8
-10 -11 -5 -3 -10 -1 -10 4 0 6 5 11 10 11 6 0 10 -2 10 -4z"/>
<path d="M1120 131 c-5 -11 -10 -28 -10 -38 0 -15 2 -16 10 -3 8 12 13 13 30
2 23 -14 25 -4 8 33 -13 30 -24 32 -38 6z"/>
<path d="M1180 113 c1 -34 2 -36 14 -20 9 12 16 14 21 8 12 -21 25 -11 25 19
0 17 -4 30 -10 30 -5 0 -10 -5 -10 -12 0 -9 -3 -9 -12 0 -20 20 -28 13 -28
-25z"/>
</g>
</svg>
